<svg xmlns="http://www.w3.org/2000/svg" width="36" height="36" viewBox="0 0 36 36">
  <path id="do_not_disturb_on_FILL1_wght100_GRAD200_opsz24" d="M11.5,21.732h18V19.174h-18Zm9,16.768a17.39,17.39,0,0,1-7.011-1.421,18.533,18.533,0,0,1-5.709-3.837,17.96,17.96,0,0,1-3.86-5.709A17.551,17.551,0,0,1,2.5,20.5a17.565,17.565,0,0,1,1.421-7.035,18.261,18.261,0,0,1,3.86-5.732A18.015,18.015,0,0,1,13.489,3.9,17.654,17.654,0,0,1,20.5,2.5a17.9,17.9,0,0,1,18,18,17.654,17.654,0,0,1-1.4,7.011,17.993,17.993,0,0,1-3.837,5.707,18.245,18.245,0,0,1-5.732,3.861A17.565,17.565,0,0,1,20.5,38.5Z" transform="translate(-2.5 -2.5)" fill="#0e3b6b"/>
</svg>
