<svg xmlns="http://www.w3.org/2000/svg" width="37.7" height="37.7" viewBox="0 0 37.7 37.7">
  <path id="add_circle_FILL0_wght300_GRAD-25_opsz48" d="M23,33.4h2.2V25.25h8.2v-2.2H25.2V14.6H23v8.45H14.6v2.2H23Zm1,9.45a18.057,18.057,0,0,1-7.325-1.5A19.139,19.139,0,0,1,6.65,31.325a18.7,18.7,0,0,1,0-14.675,19.241,19.241,0,0,1,4.05-6,18.97,18.97,0,0,1,5.975-4.025,18.988,18.988,0,0,1,14.675,0A18.689,18.689,0,0,1,41.375,16.65a18.988,18.988,0,0,1,0,14.675A18.97,18.97,0,0,1,37.35,37.3a19.241,19.241,0,0,1-6,4.05A18.233,18.233,0,0,1,24,42.85Zm0-2.2a16.02,16.02,0,0,0,11.8-4.875A16.085,16.085,0,0,0,40.65,24,16.061,16.061,0,0,0,35.8,12.2,16.061,16.061,0,0,0,24,7.35,16.085,16.085,0,0,0,12.225,12.2,16.02,16.02,0,0,0,7.35,24a16.044,16.044,0,0,0,4.875,11.775A16.044,16.044,0,0,0,24,40.65ZM24,24Z" transform="translate(-5.15 -5.15)" fill="var(--primary-dark-blue)"/>
</svg>
